<svg width="64" height="61" viewBox="0 0 64 61" fill="none" xmlns="http://www.w3.org/2000/svg">
<path d="M57.6 5.47594H54.4V2.73797C54.4 1.23209 52.96 0 51.2 0C49.44 0 48 1.23209 48 2.73797V5.47594H16V2.73797C16 1.23209 14.56 0 12.8 0C11.04 0 9.6 1.23209 9.6 2.73797V5.47594H6.4C2.88 5.47594 0 7.94011 0 10.9519V54.7594C0 57.7711 2.88 60.2353 6.4 60.2353H57.6C61.12 60.2353 64 57.7711 64 54.7594V10.9519C64 7.94011 61.12 5.47594 57.6 5.47594ZM54.4 54.7594H9.6C7.84 54.7594 6.4 53.5273 6.4 52.0214V19.1658H57.6V52.0214C57.6 53.5273 56.16 54.7594 54.4 54.7594Z" fill="#813EB0"/>
</svg>
