<svg width="64" height="32" viewBox="0 0 64 32" fill="none" xmlns="http://www.w3.org/2000/svg">
<path d="M6.25479 14.016C7.15092 9.312 11.5676 6.08 16.3683 6.08H25.7456C27.4099 6.08 28.7861 4.704 28.7861 3.04C28.7861 1.376 27.4099 0 25.7456 0H16.6883C8.33509 0 0.878009 6.112 0.0778929 14.432C-0.850242 23.968 6.63884 32 15.9842 32H25.7456C27.4099 32 28.7861 30.624 28.7861 28.96C28.7861 27.296 27.4099 25.92 25.7456 25.92H15.9842C9.87131 25.92 5.03861 20.352 6.25479 14.016ZM22.3851 19.2H41.5879C43.3482 19.2 44.7884 17.76 44.7884 16C44.7884 14.24 43.3482 12.8 41.5879 12.8H22.3851C20.6249 12.8 19.1847 14.24 19.1847 16C19.1847 17.76 20.6249 19.2 22.3851 19.2ZM47.2847 0H38.2274C36.5632 0 35.187 1.376 35.187 3.04C35.187 4.704 36.5632 6.08 38.2274 6.08H47.6048C52.4055 6.08 56.8221 9.312 57.7183 14.016C58.9344 20.352 54.1017 25.92 47.9888 25.92H38.2274C36.5632 25.92 35.187 27.296 35.187 28.96C35.187 30.624 36.5632 32 38.2274 32H47.9888C57.3342 32 64.8233 23.968 63.9272 14.432C63.127 6.112 55.638 0 47.2847 0Z" fill="#EADFEA"/>
</svg>
