<svg width="64" height="57" viewBox="0 0 64 57" fill="none" xmlns="http://www.w3.org/2000/svg">
<path d="M28.4444 12.642H49.7778V18.963H28.4444V12.642ZM28.4444 25.284H49.7778V31.6049H28.4444V25.284ZM28.4444 37.9259H49.7778V44.2469H28.4444V37.9259ZM14.2222 12.642H21.3333V18.963H14.2222V12.642ZM14.2222 25.284H21.3333V31.6049H14.2222V25.284ZM14.2222 37.9259H21.3333V44.2469H14.2222V37.9259ZM60.8 0H3.2C1.42222 0 0 1.2642 0 2.84444V54.0444C0 55.3086 1.42222 56.8889 3.2 56.8889H60.8C62.2222 56.8889 64 55.3086 64 54.0444V2.84444C64 1.2642 62.2222 0 60.8 0ZM56.8889 50.5679H7.11111V6.32099H56.8889V50.5679Z" fill="#813EB0"/>
</svg>
